<mxfile host="app.diagrams.net" agent="Mozilla/5.0 (Windows NT 10.0; Win64; x64) AppleWebKit/537.36 (KHTML, like Gecko) Chrome/134.0.0.0 Safari/537.36" version="26.1.3">
  <diagram name="第 1 页" id="mUwFhyehSl_GyxrtWDsP">
    <mxGraphModel dx="1430" dy="786" grid="1" gridSize="10" guides="1" tooltips="1" connect="1" arrows="1" fold="1" page="1" pageScale="1" pageWidth="827" pageHeight="1169" math="0" shadow="0">
      <root>
        <mxCell id="0" />
        <mxCell id="1" parent="0" />
        <mxCell id="kuLOO3_YuScoXJ6kCxd8-5" value="" style="edgeStyle=orthogonalEdgeStyle;rounded=0;orthogonalLoop=1;jettySize=auto;html=1;" edge="1" parent="1" source="kuLOO3_YuScoXJ6kCxd8-1" target="kuLOO3_YuScoXJ6kCxd8-4">
          <mxGeometry relative="1" as="geometry" />
        </mxCell>
        <mxCell id="kuLOO3_YuScoXJ6kCxd8-1" value="FScene::FScene" style="rounded=0;whiteSpace=wrap;html=1;" vertex="1" parent="1">
          <mxGeometry x="70" y="200" width="110" height="40" as="geometry" />
        </mxCell>
        <mxCell id="kuLOO3_YuScoXJ6kCxd8-4" value="ComputeSystemInterface::CreateWorkers" style="rounded=0;whiteSpace=wrap;html=1;" vertex="1" parent="1">
          <mxGeometry x="260" y="200" width="250" height="40" as="geometry" />
        </mxCell>
        <mxCell id="kuLOO3_YuScoXJ6kCxd8-6" value="UWorld::InitWorld" style="rounded=0;whiteSpace=wrap;html=1;" vertex="1" parent="1">
          <mxGeometry x="70" y="120" width="110" height="40" as="geometry" />
        </mxCell>
        <mxCell id="kuLOO3_YuScoXJ6kCxd8-7" value="UUnrealEdEngine::Tick" style="rounded=0;whiteSpace=wrap;html=1;" vertex="1" parent="1">
          <mxGeometry x="70" y="30" width="140" height="40" as="geometry" />
        </mxCell>
      </root>
    </mxGraphModel>
  </diagram>
</mxfile>
